<!-- <svg width="32" height="32" viewBox="0 0 32 32" fill="none" xmlns="http://www.w3.org/2000/svg">
<path d="M13 1.44338C14.547 0.550211 16.453 0.550212 18 1.44338L26.4234 6.30662C27.9704 7.19979 28.9234 8.85042 28.9234 10.6368V20.3632C28.9234 22.1496 27.9704 23.8002 26.4234 24.6934L18 29.5566C16.453 30.4498 14.547 30.4498 13 29.5566L4.57661 24.6934C3.0296 23.8002 2.07661 22.1496 2.07661 20.3632V10.6368C2.07661 8.85042 3.0296 7.19979 4.57661 6.30662L13 1.44338Z" fill="#848BA2"/>
<path d="M14.028 6.8H16.966L16.472 19.254H14.496L14.028 6.8ZM15.51 25.156C15.0247 25.156 14.6173 25 14.288 24.688C13.9587 24.3587 13.794 23.96 13.794 23.492C13.794 23.024 13.9587 22.634 14.288 22.322C14.6173 21.9927 15.0247 21.828 15.51 21.828C15.9953 21.828 16.394 21.9927 16.706 22.322C17.018 22.634 17.174 23.024 17.174 23.492C17.174 23.96 17.0093 24.3587 16.68 24.688C16.368 25 15.978 25.156 15.51 25.156Z" fill="white"/>
</svg> -->


<svg fill="#999999" viewBox="0 0 50.00 50.00" xmlns="http://www.w3.org/2000/svg" xmlns:xlink="http://www.w3.org/1999/xlink" stroke="#999999" stroke-width="0.0005" transform="matrix(1, 0, 0, 1, 0, 0)"><g id="SVGRepo_bgCarrier" stroke-width="0"></g><g id="SVGRepo_tracerCarrier" stroke-linecap="round" stroke-linejoin="round" stroke="#CCCCCC" stroke-width="2.8999999999999995"></g><g id="SVGRepo_iconCarrier"><path d="M10 4L10 20L2.9941406 20L3.1464844 46L17.046875 46L19.046875 46L33 46L47 46L47 8L31 8L31 9L31 28L25.996094 28L25.996094 4.0078125L10 4 z M 12 6L23.996094 6.0078125L23.996094 28L19.013672 28L18.998047 20L18 20L12 20L12 6 z M 15 8L15 10L17 10L17 8L15 8 z M 19.039062 8L19.039062 10L21 10L21 8L19.039062 8 z M 33 10L45 10L45 44L39.960938 44L39.960938 40L38 40L38 44L33 44L33 28L33 10 z M 15 12L15 14L17 14L17 12L15 12 z M 19 12L19 14L21 14L21 12L19 12 z M 36 12.003906L36 14L38 14L38 12.003906L36 12.003906 z M 40.019531 12.007812L40.019531 14.021484L41.980469 14.021484L41.980469 12.007812L40.019531 12.007812 z M 36 16.015625L36 18L38 18L38 16.015625L36 16.015625 z M 40.019531 16.015625L40.019531 18L41.980469 18L41.980469 16.015625L40.019531 16.015625 z M 36 20L36 22L38 22L38 20L36 20 z M 40 20L40 22L41.980469 22L41.980469 20L40 20 z M 5.0058594 22L17.001953 22L17.013672 28L16.998047 28L17.041016 44L11.980469 44L11.980469 40L10.019531 40L10.019531 44L5.1347656 44L5.0058594 22 z M 8 24L8 26.015625L10.039062 26.015625L10.039062 24L8 24 z M 12.039062 24L12.039062 26.015625L14 26.015625L14 24L12.039062 24 z M 36 24.007812L36 25.998047L38 25.998047L38 24.007812L36 24.007812 z M 40 24.007812L40 25.998047L41.980469 25.998047L41.980469 24.007812L40 24.007812 z M 8 27.984375L8 30L10.039062 30L10.039062 27.984375L8 27.984375 z M 12.039062 27.984375L12.039062 30L14 30L14 27.984375L12.039062 27.984375 z M 36 27.992188L36 30.007812L38 30.007812L38 27.992188L36 27.992188 z M 40.019531 27.992188L40.019531 30.007812L41.980469 30.007812L41.980469 27.992188L40.019531 27.992188 z M 19.017578 30L31 30L31 44L26 44L26 40L24 40L24 44L19.042969 44L19.017578 30 z M 8 32L8 34.015625L10.039062 34.015625L10.039062 32L8 32 z M 12.039062 32L12.039062 34.015625L14 34.015625L14 32L12.039062 32 z M 22 32L22 34.015625L24 34.015625L24 32L22 32 z M 26 32L26 34.015625L28 34.015625L28 32L26 32 z M 36 32L36 34.015625L38 34.015625L38 32L36 32 z M 40.019531 32L40.019531 34.015625L41.980469 34.015625L41.980469 32L40.019531 32 z M 22 35.984375L22 38L24 38L24 35.984375L22 35.984375 z M 26 35.984375L26 38L28 38L28 35.984375L26 35.984375 z M 36 35.984375L36 38L38 38L38 35.984375L36 35.984375 z M 40.019531 35.984375L40.019531 38L41.980469 38L41.980469 35.984375L40.019531 35.984375 z"></path></g></svg>